<?xml version="1.0" standalone="no"?>
<!DOCTYPE svg PUBLIC "-//W3C//DTD SVG 20010904//EN"
 "http://www.w3.org/TR/2001/REC-SVG-20010904/DTD/svg10.dtd">
<svg version="1.0" xmlns="http://www.w3.org/2000/svg"
 width="300.000000pt" height="300.000000pt" viewBox="0 0 300.000000 300.000000"
 preserveAspectRatio="xMidYMid meet">
<metadata>
Created by potrace 1.10, written by Peter Selinger 2001-2011
</metadata>
<g transform="translate(0.000000,300.000000) scale(0.100000,-0.100000)"
fill="#000000" stroke="none">
<path d="M800 2975 c0 -13 -13 -39 -29 -57 -35 -40 -91 -199 -91 -259 0 -26
-11 -66 -26 -99 -49 -104 -54 -126 -43 -183 5 -29 17 -108 25 -175 8 -68 21
-136 29 -152 8 -15 40 -97 71 -181 44 -121 58 -174 65 -248 19 -184 28 -132
28 154 0 305 9 395 47 461 15 25 24 57 24 82 0 23 2 42 4 42 2 0 30 -12 62
-27 33 -14 65 -25 73 -24 7 1 20 -7 28 -19 12 -18 17 -19 30 -8 9 7 40 12 75
12 51 -1 58 1 53 17 -5 14 -1 16 15 12 13 -3 20 0 20 8 0 9 14 15 43 16 28 2
46 9 55 22 11 15 19 18 42 11 16 -5 38 -6 48 -3 12 3 46 -11 87 -36 37 -23 72
-41 79 -41 6 0 4 -4 -4 -10 -20 -12 -15 -16 80 -50 62 -23 86 -27 96 -19 9 7
28 9 51 4 36 -6 37 -6 20 11 -9 10 -29 19 -45 20 -20 1 -26 6 -24 18 2 10 -2
23 -8 31 -17 20 7 30 26 11 15 -16 29 -20 49 -16 5 1 28 -4 52 -11 44 -12 73
-48 73 -92 0 -20 -19 -20 -62 -2 -13 5 -15 2 -11 -14 4 -16 1 -21 -16 -21 -28
0 -26 -11 7 -40 58 -51 43 -93 -36 -103 -39 -5 -44 -3 -54 19 -19 40 -33 29
-62 -48 -19 -52 -80 -118 -109 -118 -26 0 -31 24 -17 75 7 24 10 51 6 60 -5
14 -10 14 -39 2 -45 -19 -142 -30 -164 -19 -10 5 -58 13 -107 17 -79 6 -88 5
-83 -9 3 -8 2 -18 -4 -22 -6 -3 -8 -12 -5 -20 3 -7 1 -16 -4 -19 -6 -4 -10
-19 -10 -35 0 -26 -4 -30 -37 -35 -82 -14 -114 -27 -148 -59 -43 -41 -46 -72
-8 -87 20 -7 40 -7 70 2 59 16 253 -6 253 -29 0 -9 -108 -42 -138 -42 -27 0
-39 -24 -22 -45 19 -23 144 -20 198 5 23 10 59 22 80 25 90 15 127 40 142 96
6 21 21 50 33 65 l22 25 60 -31 c83 -43 101 -66 110 -140 8 -71 21 -81 70 -54
32 17 37 17 102 2 37 -9 104 -29 148 -45 87 -32 225 -54 294 -47 40 4 46 1 82
-38 21 -24 38 -51 39 -61 0 -11 10 -27 22 -37 l23 -18 -25 -48 c-14 -26 -31
-57 -38 -70 -18 -33 -107 -116 -150 -140 -22 -13 -36 -28 -34 -37 1 -9 -6 -21
-17 -26 -13 -7 -21 -26 -26 -61 -9 -67 -33 -83 -112 -78 -58 4 -58 4 -70 44
-26 84 -54 200 -55 229 -1 43 -46 191 -77 252 -26 52 -27 53 -71 53 -25 0 -50
-4 -55 -8 -14 -10 -52 -127 -60 -184 -7 -50 -22 -66 -120 -123 -47 -28 -56
-29 -147 -27 -106 3 -108 2 -82 -51 23 -45 63 -86 106 -108 20 -10 49 -35 64
-54 14 -19 31 -35 37 -35 19 0 117 -43 117 -51 0 -14 -92 -49 -129 -49 -20 0
-53 -4 -73 -9 -32 -7 -39 -6 -57 15 -24 28 -24 28 -76 10 -40 -14 -40 -14 -70
21 -19 22 -40 35 -57 36 -16 1 -28 5 -28 10 0 18 -48 3 -79 -25 -34 -31 -35
-32 -35 -117 -1 -72 -4 -86 -18 -89 -31 -6 -118 59 -118 89 0 10 -10 26 -22
36 -13 10 -32 35 -43 57 -11 21 -27 41 -35 44 -8 3 -22 11 -31 19 -15 12 -15
9 -5 -29 6 -24 14 -48 18 -53 3 -6 21 -66 38 -134 27 -106 30 -129 21 -165
-20 -78 -23 -207 -7 -281 18 -84 65 -215 77 -215 12 0 11 5 -7 48 -31 73 -52
160 -54 233 -6 161 3 206 34 180 9 -8 16 -22 16 -32 0 -10 16 -31 35 -46 20
-15 61 -71 92 -123 31 -52 74 -119 96 -148 21 -29 43 -66 49 -83 l10 -29 834
0 834 0 0 1500 0 1500 -1100 0 -1100 0 0 -25z m785 -2285 c33 -6 125 -15 204
-19 124 -8 146 -12 163 -29 l21 -20 -54 -31 c-102 -59 -156 -75 -254 -75 -49
0 -111 3 -137 8 -43 8 -48 7 -48 -9 0 -25 69 -87 138 -123 31 -16 100 -42 152
-57 129 -37 140 -42 140 -63 0 -33 -33 -52 -84 -51 -26 1 -49 6 -52 11 -9 14
-42 9 -46 -8 -2 -11 -19 -16 -65 -19 -41 -2 -74 -10 -96 -24 -19 -11 -44 -19
-57 -16 -12 2 -42 6 -66 7 -32 2 -43 7 -41 18 1 8 -7 16 -18 18 -30 6 -40 17
-86 95 -23 40 -48 75 -55 80 -25 15 -47 108 -37 157 l9 45 49 -2 c50 -3 50 -2
93 52 40 52 44 54 95 58 28 2 57 4 62 5 6 1 37 -3 70 -8z"/>
<path d="M860 980 c0 -16 31 -73 36 -67 11 10 -9 77 -22 77 -8 0 -14 -5 -14
-10z"/>
</g>
</svg>
